<?xml version="1.0" encoding="UTF-8" standalone="no"?>
<!DOCTYPE svg PUBLIC "-//W3C//DTD SVG 1.1//EN"
 "http://www.w3.org/Graphics/SVG/1.1/DTD/svg11.dtd">
<!-- Generated by graphviz version 2.40.1 (0)
 -->
<!-- Title: pipeline_dag Pages: 1 -->
<svg width="1067pt" height="259pt"
 viewBox="0.00 0.00 1066.82 258.80" xmlns="http://www.w3.org/2000/svg" xmlns:xlink="http://www.w3.org/1999/xlink">
<g id="graph0" class="graph" transform="scale(1 1) rotate(0) translate(4 254.8)">
<title>pipeline_dag</title>
<polygon fill="#ffffff" stroke="transparent" points="-4,4 -4,-254.8 1062.8172,-254.8 1062.8172,4 -4,4"/>
<!-- p0 -->
<g id="node1" class="node">
<title>p0</title>
<ellipse fill="#000000" stroke="#000000" cx="181.3339" cy="-232.2" rx="3.6" ry="3.6"/>
<text text-anchor="middle" x="127.7339" y="-239.6" font-family="Times,serif" font-size="14.00" fill="#000000">Channel.fromPath</text>
</g>
<!-- p1 -->
<g id="node2" class="node">
<title>p1</title>
<ellipse fill="none" stroke="#000000" cx="181.3339" cy="-159.6" rx="181.168" ry="18"/>
<text text-anchor="middle" x="181.3339" y="-155.9" font-family="Times,serif" font-size="14.00" fill="#000000">miRNASEQ_WORKFLOW:FASTP_PROCESS</text>
</g>
<!-- p0&#45;&gt;p1 -->
<g id="edge1" class="edge">
<title>p0&#45;&gt;p1</title>
<path fill="none" stroke="#000000" d="M181.3339,-228.2967C181.3339,-220.6869 181.3339,-203.2632 181.3339,-187.8684"/>
<polygon fill="#000000" stroke="#000000" points="184.834,-187.6802 181.3339,-177.6802 177.834,-187.6802 184.834,-187.6802"/>
<text text-anchor="middle" x="209.3339" y="-199.4" font-family="Times,serif" font-size="14.00" fill="#000000">fastq_files</text>
</g>
<!-- p4 -->
<g id="node3" class="node">
<title>p4</title>
<ellipse fill="#000000" stroke="#000000" cx="127.3339" cy="-72.6" rx="1.8" ry="1.8"/>
</g>
<!-- p1&#45;&gt;p4 -->
<g id="edge2" class="edge">
<title>p1&#45;&gt;p4</title>
<path fill="none" stroke="#000000" d="M160.8311,-141.4402C155.6059,-136.0773 150.3412,-129.9357 146.3339,-123.6 138.5779,-111.3373 133.2902,-95.4352 130.3003,-84.6724"/>
<polygon fill="#000000" stroke="#000000" points="133.6203,-83.5237 127.7815,-74.6829 126.8327,-85.2352 133.6203,-83.5237"/>
<text text-anchor="middle" x="161.8339" y="-112.4" font-family="Times,serif" font-size="14.00" fill="#000000">$out0</text>
</g>
<!-- p3 -->
<g id="node4" class="node">
<title>p3</title>
<ellipse fill="#000000" stroke="#000000" cx="181.3339" cy="-72.6" rx="1.8" ry="1.8"/>
</g>
<!-- p1&#45;&gt;p3 -->
<g id="edge3" class="edge">
<title>p1&#45;&gt;p3</title>
<path fill="none" stroke="#000000" d="M181.3339,-141.5735C181.3339,-124.502 181.3339,-99.3487 181.3339,-84.6035"/>
<polygon fill="#000000" stroke="#000000" points="184.834,-84.5185 181.3339,-74.5185 177.834,-84.5185 184.834,-84.5185"/>
<text text-anchor="middle" x="196.8339" y="-112.4" font-family="Times,serif" font-size="14.00" fill="#000000">$out1</text>
</g>
<!-- p2 -->
<g id="node5" class="node">
<title>p2</title>
<ellipse fill="#000000" stroke="#000000" cx="235.3339" cy="-72.6" rx="1.8" ry="1.8"/>
</g>
<!-- p1&#45;&gt;p2 -->
<g id="edge4" class="edge">
<title>p1&#45;&gt;p2</title>
<path fill="none" stroke="#000000" d="M199.4837,-141.4571C204.3655,-136.0012 209.3818,-129.8074 213.3339,-123.6 221.374,-110.9717 227.7534,-94.9036 231.5294,-84.2122"/>
<polygon fill="#000000" stroke="#000000" points="234.8717,-85.253 234.7097,-74.6594 228.2301,-83.0418 234.8717,-85.253"/>
<text text-anchor="middle" x="237.8339" y="-112.4" font-family="Times,serif" font-size="14.00" fill="#000000">$out2</text>
</g>
<!-- p5 -->
<g id="node6" class="node">
<title>p5</title>
<ellipse fill="#000000" stroke="#000000" cx="530.3339" cy="-232.2" rx="3.6" ry="3.6"/>
<text text-anchor="middle" x="476.7339" y="-239.6" font-family="Times,serif" font-size="14.00" fill="#000000">Channel.fromPath</text>
</g>
<!-- p7 -->
<g id="node7" class="node">
<title>p7</title>
<ellipse fill="none" stroke="#000000" cx="570.3339" cy="-159.6" rx="189.5666" ry="18"/>
<text text-anchor="middle" x="570.3339" y="-155.9" font-family="Times,serif" font-size="14.00" fill="#000000">miRNASEQ_WORKFLOW:BOWTIE_PROCESS</text>
</g>
<!-- p5&#45;&gt;p7 -->
<g id="edge5" class="edge">
<title>p5&#45;&gt;p7</title>
<path fill="none" stroke="#000000" d="M529.4033,-228.5709C527.8522,-221.7599 525.3705,-206.7447 530.3339,-195.6 531.9969,-191.8661 534.2597,-188.357 536.8687,-185.1049"/>
<polygon fill="#000000" stroke="#000000" points="539.6443,-187.2614 543.923,-177.5689 534.5339,-182.4776 539.6443,-187.2614"/>
<text text-anchor="middle" x="558.3339" y="-199.4" font-family="Times,serif" font-size="14.00" fill="#000000">fastp_files</text>
</g>
<!-- p9 -->
<g id="node9" class="node">
<title>p9</title>
<ellipse fill="#000000" stroke="#000000" cx="543.3339" cy="-72.6" rx="1.8" ry="1.8"/>
</g>
<!-- p7&#45;&gt;p9 -->
<g id="edge7" class="edge">
<title>p7&#45;&gt;p9</title>
<path fill="none" stroke="#000000" d="M553.9455,-141.3776C550.0594,-136.0144 546.4356,-129.8883 544.3339,-123.6 540.0706,-110.8437 540.5138,-95.2731 541.5797,-84.7172"/>
<polygon fill="#000000" stroke="#000000" points="545.0736,-84.9984 542.9554,-74.6175 538.1377,-84.0536 545.0736,-84.9984"/>
<text text-anchor="middle" x="559.8339" y="-112.4" font-family="Times,serif" font-size="14.00" fill="#000000">$out3</text>
</g>
<!-- p8 -->
<g id="node10" class="node">
<title>p8</title>
<ellipse fill="#000000" stroke="#000000" cx="597.3339" cy="-72.6" rx="1.8" ry="1.8"/>
</g>
<!-- p7&#45;&gt;p8 -->
<g id="edge8" class="edge">
<title>p7&#45;&gt;p8</title>
<path fill="none" stroke="#000000" d="M575.9283,-141.5735C581.2804,-124.3278 589.1922,-98.8345 593.7478,-84.1554"/>
<polygon fill="#000000" stroke="#000000" points="597.1172,-85.1066 596.7385,-74.5185 590.4317,-83.0317 597.1172,-85.1066"/>
<text text-anchor="middle" x="601.8339" y="-112.4" font-family="Times,serif" font-size="14.00" fill="#000000">$out4</text>
</g>
<!-- p6 -->
<g id="node8" class="node">
<title>p6</title>
<ellipse fill="#000000" stroke="#000000" cx="609.3339" cy="-232.2" rx="3.6" ry="3.6"/>
</g>
<!-- p6&#45;&gt;p7 -->
<g id="edge6" class="edge">
<title>p6&#45;&gt;p7</title>
<path fill="none" stroke="#000000" d="M607.4529,-228.6984C603.3827,-221.1216 593.4333,-202.6005 584.8591,-186.6392"/>
<polygon fill="#000000" stroke="#000000" points="587.8401,-184.7924 580.0245,-177.6393 581.6735,-188.1051 587.8401,-184.7924"/>
<text text-anchor="middle" x="650.8339" y="-199.4" font-family="Times,serif" font-size="14.00" fill="#000000">miRBase_reference</text>
</g>
<!-- p10 -->
<g id="node11" class="node">
<title>p10</title>
<ellipse fill="#000000" stroke="#000000" cx="781.3339" cy="-232.2" rx="3.6" ry="3.6"/>
<text text-anchor="middle" x="727.7339" y="-239.6" font-family="Times,serif" font-size="14.00" fill="#000000">Channel.fromPath</text>
</g>
<!-- p11 -->
<g id="node12" class="node">
<title>p11</title>
<ellipse fill="none" stroke="#000000" cx="781.3339" cy="-159.6" rx="3.5" ry="3.5"/>
<text text-anchor="middle" x="796.3339" y="-166.9" font-family="Times,serif" font-size="14.00" fill="#000000">collect</text>
</g>
<!-- p10&#45;&gt;p11 -->
<g id="edge9" class="edge">
<title>p10&#45;&gt;p11</title>
<path fill="none" stroke="#000000" d="M781.3339,-228.2967C781.3339,-218.1576 781.3339,-190.597 781.3339,-173.6256"/>
<polygon fill="#000000" stroke="#000000" points="784.834,-173.1754 781.3339,-163.1755 777.834,-173.1755 784.834,-173.1754"/>
</g>
<!-- p14 -->
<g id="node13" class="node">
<title>p14</title>
<ellipse fill="none" stroke="#000000" cx="870.3339" cy="-72.6" rx="188.4666" ry="18"/>
<text text-anchor="middle" x="870.3339" y="-68.9" font-family="Times,serif" font-size="14.00" fill="#000000">miRNASEQ_WORKFLOW:MIRTOP_PROCESS</text>
</g>
<!-- p11&#45;&gt;p14 -->
<g id="edge10" class="edge">
<title>p11&#45;&gt;p14</title>
<path fill="none" stroke="#000000" d="M781.7829,-155.926C783.0689,-146.8404 787.5345,-123.0121 800.3339,-108.6 804.6216,-103.772 809.7112,-99.4999 815.1606,-95.7429"/>
<polygon fill="#000000" stroke="#000000" points="817.3236,-98.5188 823.9565,-90.2571 813.6193,-92.5793 817.3236,-98.5188"/>
<text text-anchor="middle" x="833.3339" y="-112.4" font-family="Times,serif" font-size="14.00" fill="#000000">bowtie_files</text>
</g>
<!-- p17 -->
<g id="node16" class="node">
<title>p17</title>
<ellipse fill="#000000" stroke="#000000" cx="816.3339" cy="-1.8" rx="1.8" ry="1.8"/>
</g>
<!-- p14&#45;&gt;p17 -->
<g id="edge13" class="edge">
<title>p14&#45;&gt;p17</title>
<path fill="none" stroke="#000000" d="M850.7809,-54.4129C845.4461,-48.9562 839.8874,-42.7732 835.3339,-36.6 829.7845,-29.0766 824.7757,-19.7414 821.2957,-12.6342"/>
<polygon fill="#000000" stroke="#000000" points="824.4381,-11.0907 817.0571,-3.4899 818.0872,-14.0346 824.4381,-11.0907"/>
<text text-anchor="middle" x="850.8339" y="-25.4" font-family="Times,serif" font-size="14.00" fill="#000000">$out5</text>
</g>
<!-- p16 -->
<g id="node17" class="node">
<title>p16</title>
<ellipse fill="#000000" stroke="#000000" cx="870.3339" cy="-1.8" rx="1.8" ry="1.8"/>
</g>
<!-- p14&#45;&gt;p16 -->
<g id="edge14" class="edge">
<title>p14&#45;&gt;p16</title>
<path fill="none" stroke="#000000" d="M870.3339,-54.3672C870.3339,-41.7838 870.3339,-25.3818 870.3339,-14.2703"/>
<polygon fill="#000000" stroke="#000000" points="873.834,-13.9527 870.3339,-3.9527 866.834,-13.9527 873.834,-13.9527"/>
<text text-anchor="middle" x="885.8339" y="-25.4" font-family="Times,serif" font-size="14.00" fill="#000000">$out6</text>
</g>
<!-- p15 -->
<g id="node18" class="node">
<title>p15</title>
<ellipse fill="#000000" stroke="#000000" cx="924.3339" cy="-1.8" rx="1.8" ry="1.8"/>
</g>
<!-- p14&#45;&gt;p15 -->
<g id="edge15" class="edge">
<title>p14&#45;&gt;p15</title>
<path fill="none" stroke="#000000" d="M887.5407,-54.4049C892.5094,-48.8478 897.8081,-42.6131 902.3339,-36.6 908.2427,-28.7493 914.1495,-19.2953 918.3525,-12.2237"/>
<polygon fill="#000000" stroke="#000000" points="921.4447,-13.8677 923.4152,-3.4577 915.383,-10.3668 921.4447,-13.8677"/>
<text text-anchor="middle" x="927.8339" y="-25.4" font-family="Times,serif" font-size="14.00" fill="#000000">$out7</text>
</g>
<!-- p12 -->
<g id="node14" class="node">
<title>p12</title>
<ellipse fill="#000000" stroke="#000000" cx="870.3339" cy="-159.6" rx="3.6" ry="3.6"/>
</g>
<!-- p12&#45;&gt;p14 -->
<g id="edge11" class="edge">
<title>p12&#45;&gt;p14</title>
<path fill="none" stroke="#000000" d="M870.3339,-155.8617C870.3339,-146.445 870.3339,-121.053 870.3339,-100.7647"/>
<polygon fill="#000000" stroke="#000000" points="873.834,-100.7321 870.3339,-90.7322 866.834,-100.7322 873.834,-100.7321"/>
<text text-anchor="middle" x="938.3339" y="-112.4" font-family="Times,serif" font-size="14.00" fill="#000000">miRBase_gff3_reference</text>
</g>
<!-- p13 -->
<g id="node15" class="node">
<title>p13</title>
<ellipse fill="#000000" stroke="#000000" cx="1029.3339" cy="-159.6" rx="3.6" ry="3.6"/>
</g>
<!-- p13&#45;&gt;p14 -->
<g id="edge12" class="edge">
<title>p13&#45;&gt;p14</title>
<path fill="none" stroke="#000000" d="M1028.8676,-156.0057C1027.4626,-146.683 1022.3949,-121.552 1007.3339,-108.6 999.9506,-102.2506 984.0244,-96.3844 965.5474,-91.3101"/>
<polygon fill="#000000" stroke="#000000" points="966.2446,-87.8748 955.6843,-88.7304 964.4732,-94.647 966.2446,-87.8748"/>
<text text-anchor="middle" x="1036.8339" y="-112.4" font-family="Times,serif" font-size="14.00" fill="#000000">hairpin</text>
</g>
</g>
</svg>
